{
    "asset" : {
        "generator" : "Khronos glTF Blender I/O v0.9.36",
        "version" : "2.0"
    },
    "scene" : 0,
    "scenes" : [
        {
            "name" : "Scene",
            "nodes" : [
                0,
                26,
                27
            ]
        }
    ],
    "nodes" : [
        {
            "name" : "Hemi",
            "scale" : [
                0.21820008754730225,
                0.21820008754730225,
                0.21820008754730225
            ]
        },
        {
            "name" : "Bone.007",
            "rotation" : [
                0.13911718130111694,
                1.175699324562629e-07,
                1.689528872361734e-08,
                0.990276038646698
            ],
            "scale" : [
                1,
                1,
                1.0000001192092896
            ],
            "translation" : [
                4.440892098500626e-16,
                0.5468128323554993,
                0
            ]
        },
        {
            "children" : [
                1
            ],
            "name" : "Bone.006",
            "rotation" : [
                0.10476236045360565,
                -8.372745453667796e-16,
                8.671328100007258e-10,
                0.9944972991943359
            ],
            "translation" : [
                -8.881784197001252e-16,
                0.5537251234054565,
                -5.960464477539063e-08
            ]
        },
        {
            "children" : [
                2
            ],
            "name" : "Bone.005",
            "rotation" : [
                0.021490484476089478,
                1.2747716215955052e-09,
                3.077573085263907e-09,
                0.9997690916061401
            ],
            "translation" : [
                -4.961413158221721e-21,
                0.6840811371803284,
                0
            ]
        },
        {
            "children" : [
                3
            ],
            "name" : "Bone.004",
            "rotation" : [
                -0.20019587874412537,
                2.0001100114238474e-13,
                1.5690464064740256e-13,
                0.9797558784484863
            ],
            "scale" : [
                1,
                0.9999999403953552,
                0.9999999403953552
            ],
            "translation" : [
                1.3552527156068805e-20,
                0.43974897265434265,
                1.2665987014770508e-07
            ]
        },
        {
            "children" : [
                4
            ],
            "name" : "Bone.003",
            "rotation" : [
                7.298193622773397e-07,
                0.9810932874679565,
                0.1935354322195053,
                -3.6996891594753833e-06
            ],
            "scale" : [
                1,
                1.0000001192092896,
                1.0000001192092896
            ],
            "translation" : [
                -9.154867619196039e-16,
                0.5804777145385742,
                -1.862645149230957e-09
            ]
        },
        {
            "children" : [
                5
            ],
            "name" : "Bone.002",
            "rotation" : [
                0.02560899592936039,
                -3.964392362831859e-06,
                -9.158492986216515e-08,
                0.9996720552444458
            ],
            "translation" : [
                -6.812211656315875e-16,
                0.8637571930885315,
                7.450580596923828e-09
            ]
        },
        {
            "children" : [
                6
            ],
            "name" : "Bone.001",
            "rotation" : [
                -5.691412230390824e-09,
                0.9995726943016052,
                0.029230765998363495,
                -1.9462399336589442e-07
            ],
            "translation" : [
                0,
                0.8999999761581421,
                0
            ]
        },
        {
            "children" : [
                7
            ],
            "name" : "Bone",
            "rotation" : [
                -0.7071068286895752,
                3.062662017327966e-07,
                3.062662017327966e-07,
                0.7071068286895752
            ]
        },
        {
            "name" : "Bone.015",
            "rotation" : [
                -0.13911668956279755,
                -0.05568328872323036,
                -0.0004927893751300871,
                0.9887091517448425
            ],
            "scale" : [
                1,
                1.0000001192092896,
                0.9999999403953552
            ],
            "translation" : [
                1.1874092820107762e-08,
                0.5468119978904724,
                1.301803536080115e-07
            ]
        },
        {
            "children" : [
                9
            ],
            "name" : "Bone.014",
            "rotation" : [
                -0.10475919395685196,
                0.05232187733054161,
                -0.0007507590926252306,
                0.9931201338768005
            ],
            "scale" : [
                0.9999998211860657,
                0.9999999403953552,
                1.0000001192092896
            ],
            "translation" : [
                1.9906892134713416e-08,
                0.55372554063797,
                5.327477481387177e-08
            ]
        },
        {
            "children" : [
                10
            ],
            "name" : "Bone.013",
            "rotation" : [
                -0.012005588971078396,
                0.8029755353927612,
                0.017824651673436165,
                0.5956245064735413
            ],
            "scale" : [
                1.0000001192092896,
                1.000000238418579,
                1.0000001192092896
            ],
            "translation" : [
                -2.0959119240160362e-07,
                0.6840814352035522,
                -2.7446510841855343e-08
            ]
        },
        {
            "children" : [
                11
            ],
            "name" : "Bone.012",
            "rotation" : [
                0.11558311432600021,
                -0.7999674677848816,
                -0.16345928609371185,
                0.565662145614624
            ],
            "scale" : [
                0.9999999403953552,
                0.9999999403953552,
                0.9999999403953552
            ],
            "translation" : [
                5.329070518200751e-15,
                0.43974900245666504,
                7.450584149637507e-09
            ]
        },
        {
            "children" : [
                12
            ],
            "name" : "Bone.011",
            "rotation" : [
                -7.3618383567009e-07,
                0.9810932874679565,
                -0.1935354322195053,
                -3.816644948528847e-06
            ],
            "scale" : [
                1,
                1.0000001192092896,
                0.9999999403953552
            ],
            "translation" : [
                2.1316282072803006e-14,
                0.5804775953292847,
                3.725228125972535e-09
            ]
        },
        {
            "children" : [
                13
            ],
            "name" : "Bone.010",
            "rotation" : [
                -0.025609003379940987,
                -3.964942152379081e-06,
                9.546585744146796e-08,
                0.9996720552444458
            ],
            "scale" : [
                1,
                1.0000001192092896,
                1
            ],
            "translation" : [
                8.881784197001252e-16,
                0.8637571930885315,
                -3.72528741188205e-09
            ]
        },
        {
            "children" : [
                14
            ],
            "name" : "Bone.009",
            "rotation" : [
                1.2776685265336596e-09,
                0.99957275390625,
                -0.029230717569589615,
                -1.9462402178760385e-07
            ],
            "translation" : [
                -1.806688473612256e-21,
                0.8999999761581421,
                0
            ]
        },
        {
            "children" : [
                15
            ],
            "name" : "Bone.008",
            "rotation" : [
                0.7071067094802856,
                3.0626623015450605e-07,
                -3.0626614488937776e-07,
                0.70710688829422
            ]
        },
        {
            "name" : "string",
            "rotation" : [
                1,
                0,
                -4.331257628109597e-07,
                0
            ],
            "translation" : [
                4.6896108164909897e-17,
                -1.4162278175354004,
                5.413682696575606e-11
            ]
        },
        {
            "name" : "top_ik",
            "rotation" : [
                1.6531258495433576e-07,
                0.8165339231491089,
                0.5772975087165833,
                -1.5898501715128077e-07
            ],
            "scale" : [
                1,
                1,
                0.9999999403953552
            ],
            "translation" : [
                -7.016609515630989e-14,
                3.5924391746520996,
                -4.470348713425665e-08
            ]
        },
        {
            "children" : [
                18
            ],
            "name" : "Bone.016",
            "rotation" : [
                5.517892986972583e-07,
                -0.5772975087165833,
                0.8165339231491089,
                1.1240395991762853e-07
            ],
            "scale" : [
                1,
                0.9999998211860657,
                0.9999999403953552
            ],
            "translation" : [
                -1.033753846968466e-06,
                -0.1691131591796875,
                -1.197845458984375
            ]
        },
        {
            "name" : "top_limit",
            "rotation" : [
                1,
                0,
                -4.331257628109597e-07,
                0
            ],
            "translation" : [
                -3.981911959272111e-06,
                -1.3670308589935303,
                -4.58467435836792
            ]
        },
        {
            "name" : "bottom_ik",
            "rotation" : [
                -1.6043331640958058e-07,
                0.8165339231491089,
                -0.5772975087165833,
                -1.589850313621355e-07
            ],
            "scale" : [
                1,
                1,
                0.9999999403953552
            ],
            "translation" : [
                7.016609515630989e-14,
                3.5924391746520996,
                4.470348002882929e-08
            ]
        },
        {
            "children" : [
                21
            ],
            "name" : "Bone.017",
            "rotation" : [
                5.448881097436242e-07,
                0.5772975087165833,
                0.8165339231491089,
                -1.1240397412848324e-07
            ],
            "scale" : [
                1,
                0.9999998211860657,
                0.9999999403953552
            ],
            "translation" : [
                1.0415170663691242e-06,
                -0.1691131591796875,
                1.197845458984375
            ]
        },
        {
            "name" : "top_limit.001",
            "rotation" : [
                1,
                0,
                -4.331257628109597e-07,
                0
            ],
            "translation" : [
                3.961049969802843e-06,
                -1.3670308589935303,
                4.58467435836792
            ]
        },
        {
            "children" : [
                8,
                16,
                17,
                19,
                20,
                22,
                23
            ],
            "name" : "main",
            "rotation" : [
                0.7071068286895752,
                -3.062662017327966e-07,
                -3.062662017327966e-07,
                0.7071068286895752
            ]
        },
        {
            "mesh" : 0,
            "name" : "Cylinder.001",
            "rotation" : [
                0,
                0,
                1,
                4.5964805312631585e-14
            ],
            "skin" : 0
        },
        {
            "children" : [
                25,
                24
            ],
            "name" : "Bow",
            "scale" : [
                0.21820008754730225,
                0.21820008754730225,
                0.21820008754730225
            ]
        },
        {
            "mesh" : 1,
            "name" : "Arrow",
            "rotation" : [
                0.7071067690849304,
                0,
                0,
                0.7071068286895752
            ],
            "scale" : [
                0.47243985533714294,
                0.21820008754730225,
                0.47243985533714294
            ]
        }
    ],
    "materials" : [
        {
            "doubleSided" : true,
            "name" : "Wood",
            "pbrMetallicRoughness" : {}
        },
        {
            "doubleSided" : true,
            "name" : "Metal",
            "pbrMetallicRoughness" : {}
        },
        {
            "doubleSided" : true,
            "name" : "String",
            "pbrMetallicRoughness" : {}
        }
    ],
    "meshes" : [
        {
            "name" : "Cylinder.005",
            "primitives" : [
                {
                    "attributes" : {
                        "POSITION" : 0,
                        "NORMAL" : 1,
                        "JOINTS_0" : 2,
                        "WEIGHTS_0" : 3
                    },
                    "indices" : 4,
                    "material" : 0
                },
                {
                    "attributes" : {
                        "POSITION" : 5,
                        "NORMAL" : 6,
                        "JOINTS_0" : 7,
                        "WEIGHTS_0" : 8
                    },
                    "indices" : 9,
                    "material" : 1
                },
                {
                    "attributes" : {
                        "POSITION" : 10,
                        "NORMAL" : 11,
                        "JOINTS_0" : 12,
                        "WEIGHTS_0" : 13
                    },
                    "indices" : 14,
                    "material" : 2
                }
            ]
        },
        {
            "name" : "Cylinder.011",
            "primitives" : [
                {
                    "attributes" : {
                        "POSITION" : 16,
                        "NORMAL" : 17
                    },
                    "indices" : 18,
                    "material" : 0
                }
            ]
        }
    ],
    "skins" : [
        {
            "inverseBindMatrices" : 15,
            "joints" : [
                24,
                8,
                7,
                6,
                5,
                4,
                3,
                2,
                1,
                16,
                15,
                14,
                13,
                12,
                11,
                10,
                9,
                17,
                19,
                18,
                20,
                22,
                21,
                23
            ],
            "name" : "Bow"
        }
    ],
    "accessors" : [
        {
            "bufferView" : 0,
            "componentType" : 5126,
            "count" : 10016,
            "max" : [
                0.31890803575515747,
                5.809566497802734,
                0.302205890417099
            ],
            "min" : [
                -0.35858994722366333,
                -5.809566974639893,
                -1.5694060325622559
            ],
            "type" : "VEC3"
        },
        {
            "bufferView" : 1,
            "componentType" : 5126,
            "count" : 10016,
            "type" : "VEC3"
        },
        {
            "bufferView" : 2,
            "componentType" : 5123,
            "count" : 10016,
            "type" : "VEC4"
        },
        {
            "bufferView" : 3,
            "componentType" : 5126,
            "count" : 10016,
            "type" : "VEC4"
        },
        {
            "bufferView" : 4,
            "componentType" : 5123,
            "count" : 15570,
            "type" : "SCALAR"
        },
        {
            "bufferView" : 5,
            "componentType" : 5126,
            "count" : 4832,
            "max" : [
                0.5001810193061829,
                3.248267412185669,
                0.5143449306488037
            ],
            "min" : [
                -0.5001810193061829,
                -3.248267650604248,
                -0.6206617951393127
            ],
            "type" : "VEC3"
        },
        {
            "bufferView" : 6,
            "componentType" : 5126,
            "count" : 4832,
            "type" : "VEC3"
        },
        {
            "bufferView" : 7,
            "componentType" : 5123,
            "count" : 4832,
            "type" : "VEC4"
        },
        {
            "bufferView" : 8,
            "componentType" : 5126,
            "count" : 4832,
            "type" : "VEC4"
        },
        {
            "bufferView" : 9,
            "componentType" : 5123,
            "count" : 7542,
            "type" : "SCALAR"
        },
        {
            "bufferView" : 10,
            "componentType" : 5126,
            "count" : 222,
            "max" : [
                0.052020467817783356,
                4.577702045440674,
                -1.359972596168518
            ],
            "min" : [
                -0.05201960727572441,
                -4.577703952789307,
                -1.4640159606933594
            ],
            "type" : "VEC3"
        },
        {
            "bufferView" : 11,
            "componentType" : 5126,
            "count" : 222,
            "type" : "VEC3"
        },
        {
            "bufferView" : 12,
            "componentType" : 5123,
            "count" : 222,
            "type" : "VEC4"
        },
        {
            "bufferView" : 13,
            "componentType" : 5126,
            "count" : 222,
            "type" : "VEC4"
        },
        {
            "bufferView" : 14,
            "componentType" : 5123,
            "count" : 384,
            "type" : "SCALAR"
        },
        {
            "bufferView" : 15,
            "componentType" : 5126,
            "count" : 24,
            "type" : "MAT4"
        },
        {
            "bufferView" : 16,
            "componentType" : 5126,
            "count" : 656,
            "max" : [
                0.028289027512073517,
                3.4413533210754395,
                0.0959606021642685
            ],
            "min" : [
                -0.028289027512073517,
                -3.2599172592163086,
                -0.09596072882413864
            ],
            "type" : "VEC3"
        },
        {
            "bufferView" : 17,
            "componentType" : 5126,
            "count" : 656,
            "type" : "VEC3"
        },
        {
            "bufferView" : 18,
            "componentType" : 5123,
            "count" : 1068,
            "type" : "SCALAR"
        }
    ],
    "bufferViews" : [
        {
            "buffer" : 0,
            "byteLength" : 120192,
            "byteOffset" : 0
        },
        {
            "buffer" : 0,
            "byteLength" : 120192,
            "byteOffset" : 120192
        },
        {
            "buffer" : 0,
            "byteLength" : 80128,
            "byteOffset" : 240384
        },
        {
            "buffer" : 0,
            "byteLength" : 160256,
            "byteOffset" : 320512
        },
        {
            "buffer" : 0,
            "byteLength" : 31140,
            "byteOffset" : 480768
        },
        {
            "buffer" : 0,
            "byteLength" : 57984,
            "byteOffset" : 511908
        },
        {
            "buffer" : 0,
            "byteLength" : 57984,
            "byteOffset" : 569892
        },
        {
            "buffer" : 0,
            "byteLength" : 38656,
            "byteOffset" : 627876
        },
        {
            "buffer" : 0,
            "byteLength" : 77312,
            "byteOffset" : 666532
        },
        {
            "buffer" : 0,
            "byteLength" : 15084,
            "byteOffset" : 743844
        },
        {
            "buffer" : 0,
            "byteLength" : 2664,
            "byteOffset" : 758928
        },
        {
            "buffer" : 0,
            "byteLength" : 2664,
            "byteOffset" : 761592
        },
        {
            "buffer" : 0,
            "byteLength" : 1776,
            "byteOffset" : 764256
        },
        {
            "buffer" : 0,
            "byteLength" : 3552,
            "byteOffset" : 766032
        },
        {
            "buffer" : 0,
            "byteLength" : 768,
            "byteOffset" : 769584
        },
        {
            "buffer" : 0,
            "byteLength" : 1536,
            "byteOffset" : 770352
        },
        {
            "buffer" : 0,
            "byteLength" : 7872,
            "byteOffset" : 771888
        },
        {
            "buffer" : 0,
            "byteLength" : 7872,
            "byteOffset" : 779760
        },
        {
            "buffer" : 0,
            "byteLength" : 2136,
            "byteOffset" : 787632
        }
    ],
    "buffers" : [
        {
            "byteLength" : 789768,
            "uri" : "data:application/octet-stream;base64,"
        }
    ]
}
